# xmcd
#
# Track frame offsets: 
#        150
#        10699
#        21552
#        30178
#        40457
#        50750
#        60122
#        68814
#        79337
#        92270
#
# Disc length: 1429 seconds
#
# Revision: 0
# Processed by: cddbd v1.5.2PL0 Copyright (c) Steve Scherf et al.
# Submitted via: ExactAudioCopy v0.99pb4
#
DISCID=7105930a
DTITLE=Waylon Jennings - Country Hit Parade
DYEAR=1900
DGENRE=Country
TTITLE0=Only Daddy That'll Walk The Line (Live)
TTITLE1=(That's What You Get For) Lovin' Me
TTITLE2=Love's Gonna Live Here
TTITLE3=White Lightning
TTITLE4=Lorena
TTITLE5=Heartaches By The Number
TTITLE6=Jole Blon
TTITLE7=Burning Memories
TTITLE8=The Eagle
TTITLE9=There Ain't No Good Chain Gang (with Johnny Cash)
EXTD=
EXTT0=
EXTT1=
EXTT2=
EXTT3=
EXTT4=
EXTT5=
EXTT6=
EXTT7=
EXTT8=
EXTT9=
PLAYORDER=
